<?xml version="1.0" encoding="UTF-8"?><svg id="Ebene_1" xmlns="http://www.w3.org/2000/svg" xmlns:xlink="http://www.w3.org/1999/xlink" viewBox="0 0 1006 1006"><defs><style>.cls-1{fill:#0a5dc5;filter:url(#drop-shadow-1);}.cls-2{filter:url(#drop-shadow-2);}.cls-2,.cls-3,.cls-4{fill:#f2f2f2;}.cls-5{fill:#0092ec;}.cls-3{stroke-width:3px;}.cls-3,.cls-4{stroke:#2866b5;stroke-linecap:round;stroke-miterlimit:10;}.cls-4{stroke-width:5px;}.cls-6{fill:#02508b;}.cls-7{fill:#007add;filter:url(#drop-shadow-3);}</style><filter id="drop-shadow-1" filterUnits="userSpaceOnUse"><feOffset dx="5" dy="7"/><feGaussianBlur result="blur" stdDeviation="5"/><feFlood flood-color="#000" flood-opacity=".7"/><feComposite in2="blur" operator="in"/><feComposite in="SourceGraphic"/></filter><filter id="drop-shadow-2" filterUnits="userSpaceOnUse"><feOffset dx="4.88" dy="6.83"/><feGaussianBlur result="blur-2" stdDeviation="4.88"/><feFlood flood-color="#000" flood-opacity=".7"/><feComposite in2="blur-2" operator="in"/><feComposite in="SourceGraphic"/></filter><filter id="drop-shadow-3" filterUnits="userSpaceOnUse"><feOffset dx="4.88" dy="6.83"/><feGaussianBlur result="blur-3" stdDeviation="4.88"/><feFlood flood-color="#000" flood-opacity=".7"/><feComposite in2="blur-3" operator="in"/><feComposite in="SourceGraphic"/></filter></defs><path class="cls-1" d="m498,8C228.49,8,10,226.49,10,496s218.49,488,488,488,488-218.49,488-488S767.51,8,498,8Zm0,932.08c-245.26,0-444.08-198.82-444.08-444.08S252.74,51.92,498,51.92s444.08,198.82,444.08,444.08-198.82,444.08-444.08,444.08Z"/><line class="cls-3" x1="498" y1="496" x2="139.47" y2="458.32"/><line class="cls-3" x1="498" y1="496" x2="137.5" y2="496"/><line class="cls-3" x1="498" y1="496" x2="139.47" y2="533.68"/><line class="cls-3" x1="498" y1="496" x2="145.38" y2="570.95"/><line class="cls-3" x1="498" y1="496" x2="155.14" y2="607.4"/><line class="cls-3" x1="498" y1="496" x2="168.67" y2="642.63"/><line class="cls-3" x1="498" y1="496" x2="185.8" y2="676.25"/><line class="cls-3" x1="498" y1="496" x2="206.35" y2="707.9"/><line class="cls-3" x1="498" y1="496" x2="230.1" y2="737.22"/><line class="cls-3" x1="498" y1="496" x2="256.78" y2="763.9"/><line class="cls-3" x1="498" y1="496" x2="286.1" y2="787.65"/><line class="cls-3" x1="498" y1="496" x2="317.75" y2="808.2"/><line class="cls-3" x1="498" y1="496" x2="351.37" y2="825.33"/><line class="cls-3" x1="498" y1="496" x2="386.6" y2="838.86"/><line class="cls-3" x1="498" y1="496" x2="423.05" y2="848.62"/><line class="cls-3" x1="498" y1="496" x2="460.32" y2="854.53"/><line class="cls-3" x1="498" y1="496" x2="498" y2="856.5"/><line class="cls-3" x1="498" y1="496" x2="535.68" y2="854.53"/><line class="cls-3" x1="498" y1="496" x2="572.95" y2="848.62"/><line class="cls-3" x1="498" y1="496" x2="609.4" y2="838.86"/><line class="cls-3" x1="498" y1="496" x2="644.63" y2="825.33"/><line class="cls-3" x1="498" y1="496" x2="678.25" y2="808.2"/><line class="cls-3" x1="498" y1="496" x2="709.9" y2="787.65"/><line class="cls-3" x1="498" y1="496" x2="739.22" y2="763.9"/><line class="cls-3" x1="498" y1="496" x2="765.9" y2="737.22"/><line class="cls-3" x1="498" y1="496" x2="789.65" y2="707.9"/><line class="cls-3" x1="498" y1="496" x2="810.2" y2="676.25"/><line class="cls-3" x1="498" y1="496" x2="827.33" y2="642.63"/><line class="cls-3" x1="498" y1="496" x2="840.86" y2="607.4"/><line class="cls-3" x1="498" y1="496" x2="850.62" y2="570.95"/><line class="cls-3" x1="498" y1="496" x2="856.53" y2="533.68"/><line class="cls-3" x1="498" y1="496" x2="858.5" y2="496"/><line class="cls-3" x1="498" y1="496" x2="856.53" y2="458.32"/><line class="cls-3" x1="498" y1="496" x2="850.62" y2="421.05"/><line class="cls-3" x1="498" y1="496" x2="840.86" y2="384.6"/><line class="cls-3" x1="498" y1="496" x2="827.33" y2="349.37"/><line class="cls-3" x1="498" y1="496" x2="810.2" y2="315.75"/><line class="cls-3" x1="498" y1="496" x2="789.65" y2="284.1"/><line class="cls-3" x1="498" y1="496" x2="765.9" y2="254.78"/><line class="cls-3" x1="498" y1="496" x2="739.22" y2="228.1"/><line class="cls-3" x1="498" y1="496" x2="709.9" y2="204.35"/><line class="cls-3" x1="498" y1="496" x2="678.25" y2="183.8"/><line class="cls-3" x1="498" y1="496" x2="644.63" y2="166.67"/><line class="cls-3" x1="498" y1="496" x2="609.4" y2="153.14"/><line class="cls-3" x1="498" y1="496" x2="572.95" y2="143.38"/><line class="cls-3" x1="498" y1="496" x2="535.68" y2="137.47"/><line class="cls-3" x1="498" y1="496" x2="498" y2="135.5"/><line class="cls-3" x1="498" y1="496" x2="460.32" y2="137.47"/><line class="cls-3" x1="498" y1="496" x2="423.05" y2="143.38"/><line class="cls-3" x1="498" y1="496" x2="386.6" y2="153.14"/><line class="cls-3" x1="498" y1="496" x2="351.37" y2="166.67"/><line class="cls-3" x1="498" y1="496" x2="317.75" y2="183.8"/><line class="cls-3" x1="498" y1="496" x2="286.1" y2="204.35"/><line class="cls-3" x1="498" y1="496" x2="256.78" y2="228.1"/><line class="cls-3" x1="498" y1="496" x2="230.1" y2="254.78"/><line class="cls-3" x1="498" y1="496" x2="206.35" y2="284.1"/><line class="cls-3" x1="498" y1="496" x2="185.8" y2="315.75"/><line class="cls-3" x1="498" y1="496" x2="168.67" y2="349.37"/><line class="cls-3" x1="498" y1="496" x2="155.14" y2="384.6"/><line class="cls-3" x1="498" y1="496" x2="145.38" y2="421.05"/><line class="cls-4" x1="498" y1="496" x2="305" y2="161.71"/><line class="cls-4" x1="498" y1="496" x2="498" y2="110"/><line class="cls-4" x1="498" y1="496" x2="691" y2="161.71"/><line class="cls-4" x1="498" y1="496" x2="832.29" y2="303"/><line class="cls-4" x1="498" y1="496" x2="884" y2="496"/><line class="cls-4" x1="498" y1="496" x2="832.29" y2="689"/><line class="cls-4" x1="498" y1="496" x2="691" y2="830.29"/><line class="cls-4" x1="498" y1="496" x2="498" y2="882"/><line class="cls-4" x1="498" y1="496" x2="112" y2="496"/><line class="cls-4" x1="498" y1="496" x2="163.71" y2="689"/><line class="cls-4" x1="498" y1="496" x2="305" y2="830.29"/><line class="cls-4" x1="163.71" y1="303" x2="498" y2="496"/><path class="cls-6" d="m498,153.42v685.15c-189.2,0-342.58-153.38-342.58-342.58S308.8,153.42,498,153.42Z"/><path class="cls-5" d="m840.58,496c0,189.2-153.38,342.58-342.58,342.58V153.42c189.2,0,342.58,153.38,342.58,342.58Z"/><rect class="cls-2" x="489.22" y="268.81" width="16.59" height="236.19" rx="8.3" ry="8.3"/><path class="cls-7" d="m505.71,498.56l-221.24,244.75c-2.58,2.85-6.98,3.07-9.83.49-2.85-2.57-3.08-6.97-.5-9.83l221.24-244.75c1.23-1.36,2.86-2.12,4.56-2.27,1.86-.16,3.78.43,5.28,1.77,2.85,2.58,3.07,6.98.49,9.83Z"/></svg>